<svg width="154" height="32" viewBox="0 0 154 32" fill="none" xmlns="http://www.w3.org/2000/svg">
<path d="M60.6847 28.8801H44.4861L46.7474 22.5583L65.7127 14.7309H49.5523L53.7432 3.01684H69.9417L60.6847 28.8801Z" fill="white"/>
<path d="M65.7399 14.7309L85.0911 3.08206H103.1L82.857 14.7689L96.6584 28.9453H79.3129L65.7399 14.7309Z" fill="white"/>
<path d="M138.122 0H123.136L121.674 4.08224L121.424 4.10398C107.981 5.14221 98.5718 10.0289 96.4246 16.1278C96.1094 17.0193 95.9517 17.8673 95.9517 18.6772C95.9517 21.0417 97.2617 23.0965 100.023 24.7489C102.779 26.3905 106.981 27.5538 112.591 28.0158L113.096 28.0593L111.813 31.6523H126.8L128.11 27.9886L128.365 27.9723C142.65 26.9341 151.619 21.2592 153.581 15.6767C153.859 14.8939 154 14.1329 154 13.3882C154 11.127 152.717 9.03964 149.956 7.34368C147.194 5.65861 142.965 4.42469 137.225 3.9844L136.714 3.94635L138.122 0.00543574V0ZM115.037 22.6344L114.667 22.4985C112.384 21.6669 110.998 20.0742 111.009 17.9706C111.009 17.3074 111.139 16.6062 111.406 15.8615C112.487 12.8555 115.346 10.6486 119.065 9.53429L119.804 9.31142L115.037 22.6399V22.6344ZM138.938 13.9535C138.938 14.6602 138.796 15.3886 138.53 16.1387C137.622 18.6555 134.959 21.1939 130.757 22.4387L130.023 22.6562L134.839 9.19184L135.209 9.32229C137.709 10.192 138.954 11.9314 138.943 13.959L138.938 13.9535Z" fill="white"/>
<path d="M34.9138 2.06015C11.4749 2.06015 -0.0271307 10.1105 4.80522e-05 17.5792C0.021791 23.8955 8.12104 28.891 23.0748 29.2497C24.4989 29.266 27.3309 29.2606 31.0218 29.0377L46.7039 22.5583C44.1763 22.9225 41.9477 23.2052 40.4039 23.3846C37.4849 23.6944 34.9627 23.8357 32.821 23.8629C32.4569 23.8738 32.0872 23.8792 31.723 23.8792C19.8188 23.8792 16.454 20.2318 16.4432 17.1715C16.4269 12.9805 22.9552 7.62634 35.4574 7.62634C40.0125 7.62634 43.7469 8.37104 46.2962 8.97984L48.4705 2.89725C44.0567 2.33737 39.5124 2.04927 34.9138 2.04927V2.06015Z" fill="white"/>
</svg>
